<svg id="Layer_2" data-name="Layer 2" xmlns="http://www.w3.org/2000/svg" width="252" height="67.41" viewBox="0 0 252 67.41">
  <g id="Layer_1" data-name="Layer 1">
    <path id="Union_8" data-name="Union 8" d="M0,57.523V28.73A15.612,15.612,0,1,1,5.935,40.937V57.523ZM5.956,28.712a9.638,9.638,0,1,0,9.646-9.6h-.01A9.63,9.63,0,0,0,5.956,28.712ZM193.987,44.349a15.571,15.571,0,1,1,9.68-27.77V0H209.6V28.793a15.587,15.587,0,0,1-15.589,15.556Zm-9.611-15.556a9.635,9.635,0,1,0,9.636-9.631A9.629,9.629,0,0,0,184.376,28.793Zm-81.365-.056a15.6,15.6,0,1,1,15.608,15.575A15.584,15.584,0,0,1,103.011,28.736Zm5.972-.006a9.638,9.638,0,1,0,9.636-9.618A9.63,9.63,0,0,0,108.984,28.73Zm-58.533.006A15.6,15.6,0,1,1,66.058,44.312,15.585,15.585,0,0,1,50.45,28.736Zm5.972-.006a9.635,9.635,0,1,0,9.636-9.618A9.63,9.63,0,0,0,56.422,28.73Zm105.459,14.7V28.73a9.635,9.635,0,0,0-19.27,0v14.7h-5.943V28.73a15.578,15.578,0,0,1,31.156,0v14.7Zm-128.247,0V29.784a16.65,16.65,0,0,1,16.628-16.6v5.926A10.691,10.691,0,0,0,39.576,29.784V43.426Zm201.847-.168-8.291-9.637-8.281,9.637H211.4l-.015-.019,12.036-14.01-12.036-14,.146-.137h7.279l8.379,9.756,8.379-9.756h7.279l.156.137-12.04,14L243,43.239l-.017.019Zm-138.164,0A12.154,12.154,0,0,1,85.172,31.125V8.795h5.935v7.541h9.655v5.926H91.127v8.882a6.2,6.2,0,0,0,6.191,6.181h3.443v5.932Z" transform="translate(4.367 3.088)" fill="#094"/>
    <rect id="Rectangle_2383" data-name="Rectangle 2383" width="252" height="67.41" fill="none"/>
  </g>
</svg>
